PathFileType	4	(X/Y/Z)	trial_0_0-299.trc
DataRate	CameraRate	NumFrames	NumMarkers	Units	OrigDataRate	OrigDataStartFrame	OrigNumFrames
60	60	10	27	m	60	224	299
Frame#	Time	RHip			RKnee			RAnkle			RBigToe			RSmallToe			RHeel			LHip			LKnee			LAnkle			LBigToe			LSmallToe			LHeel			Neck			Head			Nose			RShoulder			RElbow			RWrist			RThumb			RIndex			RPinky			LShoulder			LElbow			LWrist			LThumb			LIndex			LPinky		
		X1	Y1	Z1	X2	Y2	Z2	X3	Y3	Z3	X4	Y4	Z4	X5	Y5	Z5	X6	Y6	Z6	X7	Y7	Z7	X8	Y8	Z8	X9	Y9	Z9	X10	Y10	Z10	X11	Y11	Z11	X12	Y12	Z12	X13	Y13	Z13	X14	Y14	Z14	X15	Y15	Z15	X16	Y16	Z16	X17	Y17	Z17	X18	Y18	Z18	X19	Y19	Z19	X20	Y20	Z20	X21	Y21	Z21	X22	Y22	Z22	X23	Y23	Z23	X24	Y24	Z24	X25	Y25	Z25	X26	Y26	Z26	X27	Y27	Z27
225	3.75	0.26165738581189435	0.45815500535432874	0.05234107579752132	0.41721713937303495	0.4678004676984766	0.04172519598138591	0.5449796598178142	0.4641010997824351	0.04134841008758344	0.07171320290725769	0.05890839763902492	0.002807209257420987	0.6307794055331004	0.5264304586327868	0.050304084354358125	0.5513716747411417	0.455274709323539	0.04186519572985098	0.0	0.0	0.0	0.0	0.0	0.0	0.0	0.0	0.0	0.0	0.0	0.0	0.0	0.0	0.0	0.0	0.0	0.0	0.0	0.0	0.0	0.0	0.0	0.0	0.0	0.0	0.0	0.0	0.0	0.0	0.20783339090588854	0.43424409492767735	0.11851354875799262	1.2012267115962336	2.0818653529340403	0.37359859559532926	0.6140214389668937	1.1007104189988528	0.022331243721526478	1.2485614725383378	2.0849930472570293	0.0477287957257575	1.2330114132289784	1.885734735442337	0.21417225819349034	0.0	0.0	0.0	0.0	0.0	0.0	0.0	0.0	0.0	0.0	0.0	0.0	0.0	0.0	0.0	0.0	0.0	0.0
226	3.7666666666666666	0.17941835740087547	0.31594077582767904	0.039935302124481514	0.2907588666337386	0.32180313494580065	0.0309942461020174	0.38072382517097747	0.32367317576684573	0.029062490755765252	0.18050019276973261	0.14826331565729664	0.0070662806336940455	0.43885214334547673	0.36405531064156516	0.03614303391812862	0.38506379555766346	0.3183845666607314	0.02982024786474474	0.0	0.0	0.0	0.0	0.0	0.0	0.0	0.0	0.0	0.0	0.0	0.0	0.0	0.0	0.0	0.0	0.0	0.0	0.0	0.0	0.0	0.0	0.0	0.0	0.0	0.0	0.0	0.0	0.0	0.0	0.14523990639815265	0.3030181291554146	0.08423962012900596	1.239674029324194	2.0917285538745327	0.362308743511347	0.4819423576445456	0.8607715474589726	0.01235267163094605	1.395720256842141	2.2851797585487823	0.04153496577151207	1.3843935408613508	2.061277136307634	0.23713861652016788	0.0	0.0	0.0	0.0	0.0	0.0	0.0	0.0	0.0	0.0	0.0	0.0	0.0	0.0	0.0	0.0	0.0	0.0
227	3.783333333333333	0.18500299629736808	0.32832087041156666	0.04647465227685224	0.30651409829760473	0.33407138439489736	0.03520489095932537	0.4025471022473616	0.34139606999558225	0.03097782564661048	0.3633056111443492	0.29839804822343063	0.014224600210546955	0.46160564026033984	0.3798992916134633	0.03955857184860823	0.4069673866417325	0.3369613358463435	0.03230137590547346	0.0	0.0	0.0	0.0	0.0	0.0	0.0	0.0	0.0	0.0	0.0	0.0	0.0	0.0	0.0	0.0	0.0	0.0	0.0	0.0	0.0	0.0	0.0	0.0	0.0	0.0	0.0	0.0	0.0	0.0	0.1534319181815052	0.31970537763166623	0.09082510777320024	1.2614560023246277	2.0833647777896194	0.3572959219608458	0.30225018150698474	0.5386096147562749	0.005877971393065177	1.4026432987101047	2.2418510507256366	0.02785506801975578	1.4522368591187225	2.115848478346028	0.24513078167683366	0.0	0.0	0.0	0.0	0.0	0.0	0.0	0.0	0.0	0.0	0.0	0.0	0.0	0.0	0.0	0.0	0.0	0.0
228	3.8	0.24775516348832635	0.44150628002479164	0.06555893619119225	0.414321360727844	0.44954963729088754	0.04912737806716879	0.5454002018597287	0.46184587060855886	0.042154158421143215	0.5911856587014193	0.48551622264172123	0.02315084051039422	0.6236161567639165	0.5111961800067317	0.05447252050984386	0.551293954568247	0.45649363004101706	0.044241434487581555	0.0	0.0	0.0	0.0	0.0	0.0	0.0	0.0	0.0	0.0	0.0	0.0	0.0	0.0	0.0	0.0	0.0	0.0	0.0	0.0	0.0	0.0	0.0	0.0	0.0	0.0	0.0	0.0	0.0	0.0	0.20767611522846022	0.43231995366035425	0.12379112672644513	1.270386489823825	2.0610194355255538	0.35757390043898185	0.15377015618589573	0.2717429353277255	0.002404382899354949	1.3129220347899584	2.0376273938347165	0.013842614286418368	1.4397135634167988	2.0567461318608746	0.23590924688453277	0.0	0.0	0.0	0.0	0.0	0.0	0.0	0.0	0.0	0.0	0.0	0.0	0.0	0.0	0.0	0.0	0.0	0.0
229	3.816666666666667	0.31654144009429386	0.5651396040361215	0.08517003912351606	0.530130641256398	0.5761949683336804	0.06345956147465046	0.6992828465846297	0.5915764518464803	0.05416790063552773	0.7868142906427454	0.6460956847100762	0.030818331036827646	0.7982786356384928	0.653289387933431	0.07027915411189098	0.7068163170034722	0.5848921353884428	0.05692022019423615	0.0	0.0	0.0	0.0	0.0	0.0	0.0	0.0	0.0	0.0	0.0	0.0	0.0	0.0	0.0	0.0	0.0	0.0	0.0	0.0	0.0	0.0	0.0	0.0	0.0	0.0	0.0	0.0	0.0	0.0	0.2660513419591932	0.5533187619882005	0.15849215018416674	1.2742919464853821	2.0306524806857853	0.3609908377818638	0.07729387328290835	0.12814425208724947	0.0015049331527936841	1.2071980596303087	1.8057668413024288	0.006448741861678316	1.3754445054872262	1.9234765135700043	0.21456910440868826	0.0	0.0	0.0	0.0	0.0	0.0	0.0	0.0	0.0	0.0	0.0	0.0	0.0	0.0	0.0	0.0	0.0	0.0
230	3.8333333333333335	0.34505632400446246	0.6168855373989804	0.09365541091218221	0.5775710488157841	0.6299008481268437	0.06943951567832256	0.7634621945080785	0.64530060978015	0.05924465844268577	0.8644688417517271	0.70976019126556	0.03386820557019982	0.8703478133884809	0.7114581257230105	0.07703867944215513	0.7716887302178337	0.6380199971820875	0.06225213560424242	0.0	0.0	0.0	0.0	0.0	0.0	0.0	0.0	0.0	0.0	0.0	0.0	0.0	0.0	0.0	0.0	0.0	0.0	0.0	0.0	0.0	0.0	0.0	0.0	0.0	0.0	0.0	0.0	0.0	0.0	0.29023617682400293	0.6030105132319207	0.17245278820401946	1.2804591618027308	1.9965682898112287	0.36573502915498224	0.08134903045815825	0.11284766620361578	0.003182757923256267	1.1612814393902204	1.6625370583831403	0.00900249703622455	1.3090747936671177	1.7832989743743493	0.1905324449221209	0.0	0.0	0.0	0.0	0.0	0.0	0.0	0.0	0.0	0.0	0.0	0.0	0.0	0.0	0.0	0.0	0.0	0.0
231	3.85	0.3135609592575729	0.5612662784981846	0.08570541550488608	0.5243739659315464	0.5739642192894218	0.06325079950722103	0.6945711363591063	0.5865774440604049	0.05398758319382878	0.7868974068975068	0.6459785480403569	0.03083662829348057	0.7907882773928039	0.645767095613441	0.07033268017341221	0.7020614013593314	0.5799391511497975	0.05671237364964153	0.0	0.0	0.0	0.0	0.0	0.0	0.0	0.0	0.0	0.0	0.0	0.0	0.0	0.0	0.0	0.0	0.0	0.0	0.0	0.0	0.0	0.0	0.0	0.0	0.0	0.0	0.0	0.0	0.0	0.0	0.2638419868195615	0.5476281241322515	0.15631620502864302	1.2916644030486788	1.9595312783374428	0.3713946357083846	0.17407498835443558	0.22341691851143947	0.008660628377571651	1.202996820479268	1.6496390034014157	0.02024663080541816	1.2936509808449816	1.710572883268158	0.17455046953853356	0.0	0.0	0.0	0.0	0.0	0.0	0.0	0.0	0.0	0.0	0.0	0.0	0.0	0.0	0.0	0.0	0.0	0.0
232	3.8666666666666663	0.2354856927240601	0.4219629133840559	0.06474778513805052	0.3934665353325494	0.4320778930694066	0.047590977499770405	0.5221228802142835	0.4406156915292943	0.040641875176541345	0.5913034974640573	0.48535015115234903	0.023176781598450248	0.5937773073217798	0.4844581043438705	0.053029823605518514	0.5277580009338524	0.43561238300100646	0.04268108796857972	0.0	0.0	0.0	0.0	0.0	0.0	0.0	0.0	0.0	0.0	0.0	0.0	0.0	0.0	0.0	0.0	0.0	0.0	0.0	0.0	0.0	0.0	0.0	0.0	0.0	0.0	0.0	0.0	0.0	0.0	0.19820003783096377	0.41102040892678104	0.11711846299754003	1.3056475177973816	1.9187014853265278	0.3785544205768586	0.3686433508975628	0.4664423805145405	0.020014088132360164	1.2914578342955987	1.7134033394256338	0.03510185246004497	1.347106022427981	1.7332888268329798	0.17336239261917355	0.0	0.0	0.0	0.0	0.0	0.0	0.0	0.0	0.0	0.0	0.0	0.0	0.0	0.0	0.0	0.0	0.0	0.0
233	3.883333333333333	0.14468492244435474	0.2594774644496859	0.039967177731379214	0.2415806080197552	0.26597531527716006	0.029282901368817782	0.32103711646843824	0.2707616841741767	0.025017863177305474	0.36340514620577224	0.2982577723453986	0.014246511912055282	0.36476646755635367	0.2974018054839958	0.03268384634276091	0.32450426087571405	0.26767845985984495	0.02626709682193706	0.0	0.0	0.0	0.0	0.0	0.0	0.0	0.0	0.0	0.0	0.0	0.0	0.0	0.0	0.0	0.0	0.0	0.0	0.0	0.0	0.0	0.0	0.0	0.0	0.0	0.0	0.0	0.0	0.0	0.0	0.12180103084327781	0.2524097694973193	0.071822426334249	1.3179780730974486	1.8750648633045017	0.38742374468316765	0.6550930173180547	0.8227624519706139	0.03834207505252799	1.3371428426983922	1.7364636988752733	0.04684201208227018	1.431132506932479	1.802167073023583	0.18560634593727457	0.0	0.0	0.0	0.0	0.0	0.0	0.0	0.0	0.0	0.0	0.0	0.0	0.0	0.0	0.0	0.0	0.0	0.0
234	3.9	0.07187261500365241	0.12897562490722095	0.019921147843103032	0.1199442707688847	0.1323062600900137	0.014561791367507902	0.15956291566422953	0.13451708487768357	0.012444780074448835	0.18055949097019816	0.1481797460385402	0.007079334571171005	0.1811781285265873	0.14764273078724516	0.016272740607117562	0.16128699593044626	0.13298216647887173	0.01306400356780078	0.0	0.0	0.0	0.0	0.0	0.0	0.0	0.0	0.0	0.0	0.0	0.0	0.0	0.0	0.0	0.0	0.0	0.0	0.0	0.0	0.0	0.0	0.0	0.0	0.0	0.0	0.0	0.0	0.0	0.0	0.060513992771671285	0.12533961857783546	0.03562844103546825	1.325432186204839	1.8317905508256889	0.3971397867419837	0.9787147328153456	1.2193128627082868	0.06188300744388685	1.2622110549022583	1.6167746728693317	0.050757484142243924	1.4766017071852786	1.826116457281898	0.2029369404304015	0.0	0.0	0.0	0.0	0.0	0.0	0.0	0.0	0.0	0.0	0.0	0.0	0.0	0.0	0.0	0.0	0.0	0.0
